# File created by Blade
# Date/Time:  Wed Sep 24 19:10:19 2014
# Frame Rate: 120.000 fps
#------------------------------------------------------
:FULLY-SPECIFIED
:DEGREES
3642
root -6.661901 33.489047 -4.217018 38.527505 -7.850879 16.145589
Spine -28.170625 6.465847 -9.850452
Head -7.415682 39.193409 -11.434510
LeftShoulder -11.111440 19.023955 9.709602
LeftArm 16.687188 -33.761720 -84.588249
LeftForeArm 4.698298 -0.000000 98.965137
LeftHand -33.484488 0.000000 40.273081
LeftHandThumb1 -26.253704 0.000000 33.147579
RightShoulder -17.100234 6.341742 -22.321138
RightArm -19.873143 -23.078952 74.942359
RightForeArm -20.165759 -0.000000 33.467037
RightHand -3.410163 -0.000000 10.560360
RightHandThumb1 -24.326973 -0.000000 -32.862282
LeftUpLeg 7.404541 -0.347641 10.727853
LeftLeg 92.211881 -0.000000 -0.000000
LeftFoot 33.372740 21.396949 -21.592467
LeftToeBase 7.564916 -0.000000 -0.000000
RightUpLeg -47.317142 -5.670620 -10.715815
RightLeg 18.211881 -0.000000 -0.000000
RightFoot -11.692971 -13.998090 -10.994751
RightToeBase -3.566728 -0.000000 0.000000
3643
root -6.664557 33.486425 -4.229723 38.456611 -7.669862 16.123289
Spine -28.052846 6.502351 -9.769086
Head -7.385725 38.940140 -11.289257
LeftShoulder -11.071833 19.064739 9.744907
LeftArm 16.852613 -33.514564 -84.619989
LeftForeArm 4.672658 -0.000000 98.881138
LeftHand -33.443632 -0.000000 40.350990
LeftHandThumb1 -26.253704 0.000000 33.147579
RightShoulder -17.012222 6.392216 -22.313413
RightArm -19.830448 -23.035229 74.899129
RightForeArm -20.160676 0.000000 33.494896
RightHand -3.432817 -0.000000 10.203083
RightHandThumb1 -24.326973 -0.000000 -32.862282
LeftUpLeg 7.314546 -0.219833 10.733396
LeftLeg 91.876570 -0.000000 -0.000000
LeftFoot 33.298100 21.473493 -21.692227
LeftToeBase 7.687071 -0.000000 -0.000000
RightUpLeg -47.204500 -5.589131 -10.733334
RightLeg 18.214896 -0.000000 -0.000000
RightFoot -11.751697 -14.196951 -10.918349
RightToeBase -3.301021 -0.000000 0.000000
3644
root -6.664297 33.485303 -4.244232 38.400105 -7.482497 16.117013
Spine -27.956961 6.540053 -9.696799
Head -7.337689 38.656729 -11.166079
LeftShoulder -10.975711 19.001547 9.767953
LeftArm 16.919133 -33.351147 -84.591573
LeftForeArm 4.693880 -0.000000 98.806663
LeftHand -33.504423 -0.000000 40.430105
LeftHandThumb1 -26.253704 0.000000 33.147579
RightShoulder -16.937130 6.423809 -22.342953
RightArm -19.770311 -23.202233 74.908789
RightForeArm -19.726390 -0.000000 33.491369
RightHand -3.558056 -0.000000 10.100878
RightHandThumb1 -24.326973 -0.000000 -32.862282
LeftUpLeg 7.207093 -0.114007 10.722366
LeftLeg 91.530256 -0.000000 -0.000000
LeftFoot 33.260698 21.519577 -21.847329
LeftToeBase 7.595112 -0.000000 -0.000000
RightUpLeg -47.100000 -5.508872 -10.789569
RightLeg 18.206185 -0.000000 -0.000000
RightFoot -11.767941 -14.384493 -10.833228
RightToeBase -3.230830 -0.000000 0.000000
3645
root -6.665678 33.489447 -4.262604 38.400588 -7.294558 16.186380
Spine -27.943361 6.515656 -9.760272
Head -7.263360 38.341855 -10.933290
LeftShoulder -10.860582 18.970026 9.903297
LeftArm 16.974759 -33.152271 -84.598859
LeftForeArm 4.813337 -0.000000 98.695816
LeftHand -33.521789 -0.000000 40.416573
LeftHandThumb1 -26.253704 0.000000 33.147579
RightShoulder -16.879937 6.441321 -22.291918
RightArm -19.729360 -23.282603 74.883293
RightForeArm -19.795608 -0.000000 33.548041
RightHand -3.553823 -0.000000 9.962330
RightHandThumb1 -24.326973 -0.000000 -32.862282
LeftUpLeg 6.997139 -0.055991 10.638425
LeftLeg 91.206029 -0.000000 -0.000000
LeftFoot 33.170820 21.600951 -21.941918
LeftToeBase 7.634108 -0.000000 -0.000000
RightUpLeg -47.086125 -5.545069 -10.854711
RightLeg 18.242009 -0.000000 -0.000000
RightFoot -11.787299 -14.495726 -10.751103
RightToeBase -3.212978 -0.000000 0.000000
3646
root -6.664890 33.487227 -4.275509 38.348308 -7.156320 16.119814
Spine -27.885131 6.662218 -9.695396
Head -7.161195 38.006543 -10.819159
LeftShoulder -10.697978 18.881089 9.999365
LeftArm 16.960309 -32.998906 -84.606851
LeftForeArm 4.782493 -0.000000 98.609252
LeftHand -33.502160 0.000000 40.648355
LeftHandThumb1 -26.253704 0.000000 33.147579
RightShoulder -16.815164 6.451766 -22.316726
RightArm -19.665544 -23.361412 74.862951
RightForeArm -19.825274 -0.000000 33.553506
RightHand -3.477923 -0.000000 10.016253
RightHandThumb1 -24.326973 -0.000000 -32.862282
LeftUpLeg 6.932868 0.105362 10.621227
LeftLeg 90.840319 -0.000000 -0.000000
LeftFoot 33.119575 21.622586 -21.907890
LeftToeBase 7.682039 -0.000000 -0.000000
RightUpLeg -46.974211 -5.417563 -10.873824
RightLeg 18.188853 -0.000000 -0.000000
RightFoot -11.785463 -14.683573 -10.715380
RightToeBase -3.143591 -0.000000 0.000000
3647
root -6.665085 33.487221 -4.286227 38.321272 -7.014041 16.108402
Spine -27.872426 6.720501 -9.695411
Head -7.065109 37.708913 -10.660108
LeftShoulder -10.595591 18.848631 10.079837
LeftArm 17.021882 -32.890991 -84.638595
LeftForeArm 4.931320 -0.000000 98.506350
LeftHand -33.552101 -0.000000 40.535470
LeftHandThumb1 -26.253704 0.000000 33.147579
RightShoulder -16.764163 6.444652 -22.286903
RightArm -19.553481 -23.561814 74.820367
RightForeArm -19.792416 -0.000000 33.608834
RightHand -3.666422 0.000000 10.056868
RightHandThumb1 -24.326973 -0.000000 -32.862282
LeftUpLeg 6.830563 0.178773 10.527030
LeftLeg 90.462055 -0.000000 -0.000000
LeftFoot 33.093903 21.562231 -21.944597
LeftToeBase 7.774915 -0.000000 -0.000000
RightUpLeg -46.912011 -5.375700 -10.892021
RightLeg 18.186716 -0.000000 -0.000000
RightFoot -11.831132 -14.826443 -10.648582
RightToeBase -3.102087 -0.000000 0.000000
3648
root -6.667993 33.485871 -4.299382 38.307282 -6.851710 16.071979
Spine -27.882678 6.753876 -9.645631
Head -6.952969 37.415728 -10.522991
LeftShoulder -10.471648 18.776975 10.170899
LeftArm 16.976584 -32.826229 -84.630192
LeftForeArm 4.901749 -0.000000 98.420962
LeftHand -33.545146 -0.000000 40.606622
LeftHandThumb1 -26.253704 0.000000 33.147579
RightShoulder -16.671437 6.485281 -22.285246
RightArm -19.510676 -23.686600 74.811642
RightForeArm -19.994105 0.000000 33.641522
RightHand -3.760769 -0.000000 9.848886
RightHandThumb1 -24.326973 -0.000000 -32.862282
LeftUpLeg 6.696548 0.291102 10.514289
LeftLeg 90.110611 -0.000000 -0.000000
LeftFoot 33.151086 21.437067 -21.789973
LeftToeBase 7.953854 -0.000000 -0.000000
RightUpLeg -46.873048 -5.350007 -10.856716
RightLeg 18.208440 -0.000000 -0.000000
RightFoot -11.893293 -14.969230 -10.555411
RightToeBase -3.044755 -0.000000 0.000000
3649
root -6.669479 33.486891 -4.312270 38.314156 -6.703437 16.038135
Spine -27.925477 6.792274 -9.617468
Head -6.829656 37.131355 -10.382548
LeftShoulder -10.313233 18.643642 10.259277
LeftArm 16.904180 -32.894465 -84.668139
LeftForeArm 4.992710 -0.000000 98.346687
LeftHand -33.700289 -0.000000 40.545483
LeftHandThumb1 -26.253704 0.000000 33.147579
RightShoulder -16.591041 6.510543 -22.268615
RightArm -19.430121 -23.887952 74.778710
RightForeArm -20.043830 0.000000 33.647538
RightHand -3.766317 0.000000 9.844648
RightHandThumb1 -24.326973 -0.000000 -32.862282
LeftUpLeg 6.550718 0.377939 10.449564
LeftLeg 89.756186 -0.000000 -0.000000
LeftFoot 33.103025 21.388805 -21.802538
LeftToeBase 7.909669 -0.000000 -0.000000
RightUpLeg -46.824188 -5.288857 -10.859948
RightLeg 18.165779 -0.000000 -0.000000
RightFoot -11.921697 -15.159509 -10.481275
RightToeBase -2.987631 -0.000000 0.000000
3650
root -6.672648 33.486070 -4.324988 38.296246 -6.563158 15.991876
Spine -27.926982 6.859301 -9.584560
Head -6.782854 36.803502 -10.317837
LeftShoulder -10.182036 18.538892 10.339517
LeftArm 16.858247 -32.885538 -84.679403
LeftForeArm 4.999561 -0.000000 98.234678
LeftHand -33.650346 -0.000000 40.584427
LeftHandThumb1 -26.253704 0.000000 33.147579
RightShoulder -16.513136 6.579258 -22.270915
RightArm -19.421827 -24.087663 74.785777
RightForeArm -20.109961 -0.000000 33.712185
RightHand -3.807310 -0.000000 9.798856
RightHandThumb1 -24.326973 -0.000000 -32.862282
LeftUpLeg 6.418955 0.483727 10.394173
LeftLeg 89.427025 -0.000000 -0.000000
LeftFoot 33.477845 21.029652 -21.220271
LeftToeBase 6.795805 -0.000000 -0.000000
RightUpLeg -46.757325 -5.233457 -10.830859
RightLeg 18.129621 -0.000000 -0.000000
RightFoot -11.974903 -15.342808 -10.411032
RightToeBase -2.957193 -0.000000 0.000000
3651
root -6.674911 33.485420 -4.335493 38.276111 -6.446367 15.949573
Spine -27.940262 6.928176 -9.581010
Head -6.757999 36.462865 -10.239484
LeftShoulder -10.080698 18.537762 10.452842
LeftArm 16.893691 -32.858399 -84.793118
LeftForeArm 5.009805 -0.000000 98.120623
LeftHand -33.538449 0.000000 40.515698
LeftHandThumb1 -26.253704 0.000000 33.147579
RightShoulder -16.435474 6.651832 -22.262941
RightArm -19.414124 -24.174220 74.757618
RightForeArm -20.132318 -0.000000 33.773972
RightHand -3.780275 0.000000 9.863511
RightHandThumb1 -24.326973 -0.000000 -32.862282
LeftUpLeg 6.296210 0.591255 10.308536
LeftLeg 89.072673 -0.000000 -0.000000
LeftFoot 33.533153 21.008092 -21.074077
LeftToeBase 6.592676 -0.000000 -0.000000
RightUpLeg -46.673485 -5.153412 -10.825571
RightLeg 18.058707 -0.000000 -0.000000
RightFoot -11.988153 -15.584678 -10.423255
RightToeBase -2.987535 -0.000000 0.000000
3652
root -6.679629 33.482503 -4.344243 38.251302 -6.312763 15.873175
Spine -27.957702 7.025367 -9.521605
Head -6.694703 36.148026 -10.179717
LeftShoulder -9.932143 18.402366 10.564806
LeftArm 16.730363 -32.847505 -84.759697
LeftForeArm 4.933993 -0.000000 98.023176
LeftHand -33.493605 -0.000000 40.871803
LeftHandThumb1 -26.253704 0.000000 33.147579
RightShoulder -16.375245 6.683937 -22.280029
RightArm -19.363176 -24.275592 74.719891
RightForeArm -20.147375 -0.000000 33.833271
RightHand -3.751746 -0.000000 9.864506
RightHandThumb1 -24.326973 -0.000000 -32.862282
LeftUpLeg 6.185239 0.679193 10.261305
LeftLeg 88.729192 -0.000000 -0.000000
LeftFoot 33.549537 20.981447 -21.066601
LeftToeBase 6.503641 -0.000000 -0.000000
RightUpLeg -46.574200 -5.196975 -10.675008
RightLeg 17.956696 -0.000000 -0.000000
RightFoot -12.041817 -15.684468 -10.528433
RightToeBase -3.045285 -0.000000 0.000000
